#!OML:ASF F:\VICON\USERDATA\INSTALL\rory3\rory3.ASF
:FULLY-SPECIFIED
:DEGREES
92
root 1.13477 17.7894 -17.0584 6.30174 -2.41875 0.464341
lowerback 6.36069 -0.601711 -1.77287
upperback -0.349122 -0.860134 1.95441
thorax -3.87427 -0.371667 3.10366
lowerneck -17.4548 -5.40806 -10.4118
upperneck 17.2778 -6.18787 7.21796
head 8.8398 -2.86111 3.36646
rclavicle -5.66536e-015 5.56597e-015
rhumerus -31.3357 -3.59625 -83.4179
rradius 36.5637
rwrist 2.19379
rhand -9.29749 13.3304
rfingers 7.12502
rthumb 16.6601 -15.9746
lclavicle -5.66536e-015 5.56597e-015
lhumerus -31.3513 4.02453 85.4497
lradius 33.1664
lwrist -7.18962
lhand -16.1544 21.0196
lfingers 7.12502
lthumb 10.0512 50.7596
rfemur -11.9245 5.32475 20.7002
rtibia 22.5964
rfoot -11.5207 -9.60509
rtoes 2.65286
lfemur -12.3447 -1.45396 -21.7697
ltibia 22.1032
lfoot -12.4305 6.11146
ltoes 2.64195
93
root 1.13962 17.7845 -17.0701 6.34197 -2.44235 0.295369
lowerback 6.5667 -0.609084 -1.5616
upperback -0.412921 -0.853104 1.99679
thorax -4.05932 -0.368711 3.03263
lowerneck -17.2143 -5.42604 -10.4284
upperneck 17.0254 -6.2196 7.2112
head 8.71433 -2.88165 3.36371
rclavicle 1.00386e-014 7.95139e-015
rhumerus -31.4509 -3.26848 -83.5605
rradius 37.0427
rwrist 2.2166
rhand -9.23488 12.7812
rfingers 7.12502
rthumb 16.7203 -16.5188
lclavicle 1.00386e-014 7.95139e-015
lhumerus -31.5359 3.86496 85.4675
lradius 33.387
lwrist -6.86782
lhand -16.0304 24.1578
lfingers 7.12502
lthumb 10.1709 53.892
rfemur -12.0964 5.2821 20.863
rtibia 22.7327
rfoot -11.48 -9.54773
rtoes 2.34968
lfemur -12.6619 -1.43107 -21.5964
ltibia 22.5263
lfoot -12.7005 6.20935
ltoes 2.1678
94
root 1.14011 17.7776 -17.0883 6.41037 -2.44577 0.0422002
lowerback 6.90534 -0.60246 -1.34236
upperback -0.517567 -0.823091 2.09623
thorax -4.36256 -0.352277 3.0175
lowerneck -17.0303 -5.47324 -10.5334
upperneck 16.8829 -6.27012 7.21377
head 8.64195 -2.91515 3.37626
rclavicle -2.08724e-015 7.15625e-015
rhumerus -31.5618 -3.0284 -83.6239
rradius 37.4357
rwrist 2.10364
rhand -9.2674 12.9216
rfingers 7.12502
rthumb 16.689 -16.381
lclavicle -2.08724e-015 7.15625e-015
lhumerus -31.8151 3.77868 85.4962
lradius 33.7873
lwrist -6.7341
lhand -16.1331 21.0522
lfingers 7.12502
lthumb 10.0718 50.7912
rfemur -12.3413 5.33991 21.1348
rtibia 22.9173
rfoot -11.4456 -9.55015
rtoes 2.43066
lfemur -13.0911 -1.15951 -21.3114
ltibia 23.0067
lfoot -12.9015 5.96534
ltoes 2.02942
95
root 1.14005 17.7688 -17.1054 6.44358 -2.37135 -0.075593
lowerback 7.14048 -0.586689 -1.19761
upperback -0.462095 -0.790155 2.11354
thorax -4.44107 -0.338571 2.95397
lowerneck -17.0751 -5.49747 -10.5396
upperneck 16.6119 -6.30262 7.30728
head 8.5645 -2.91897 3.40226
rclavicle 8.34896e-015 4.37326e-015
rhumerus -31.5736 -3.04436 -83.6683
rradius 37.9426
rwrist 2.05847
rhand -9.56472 13.8829
rfingers 7.12502
rthumb 16.4028 -15.4436
lclavicle 8.34896e-015 4.37326e-015
lhumerus -31.7391 3.67048 85.5111
lradius 34.1776
lwrist -6.89091
lhand -17.1631 19.3183
lfingers 7.12502
lthumb 9.07795 49.103
rfemur -12.5615 5.2963 21.2729
rtibia 23.169
rfoot -11.4771 -9.58625
rtoes 2.46072
lfemur -13.4846 -1.13025 -21.1652
ltibia 23.5234
lfoot -13.0493 5.87297
ltoes 1.94474
96
root 1.14145 17.7606 -17.1207 6.47695 -2.2666 -0.194379
lowerback 7.28085 -0.570394 -0.999705
upperback -0.319005 -0.753455 2.10239
thorax -4.37589 -0.327135 2.82709
lowerneck -17.3025 -5.51215 -10.4561
upperneck 16.4298 -6.32477 7.37503
head 8.54457 -2.91136 3.40417
rclavicle -7.65321e-015 8.74653e-015
rhumerus -31.5431 -3.05003 -83.7294
rradius 38.5713
rwrist 2.1519
rhand -9.99657 14.256
rfingers 7.12502
rthumb 15.9869 -15.1044
lclavicle -7.65321e-015 8.74653e-015
lhumerus -31.4332 3.56413 85.51
lradius 34.4158
lwrist -7.13639
lhand -19.7189 16.1501
lfingers 7.12502
lthumb 6.6112 46.0269
rfemur -12.8557 5.25156 21.4101
rtibia 23.5624
rfoot -11.6549 -9.67181
rtoes 2.43526
lfemur -13.8813 -1.1729 -21.0243
ltibia 24.0718
lfoot -13.2277 5.87717
ltoes 1.59339
97
root 1.14369 17.7533 -17.1387 6.55416 -2.09819 -0.188973
lowerback 7.34905 -0.56995 -0.913489
upperback -0.10805 -0.749755 2.05601
thorax -4.19657 -0.331491 2.72786
lowerneck -17.8049 -5.55819 -10.305
upperneck 16.4034 -6.37259 7.37024
head 8.62338 -2.91346 3.36368
rclavicle 1.19271e-015 1.98785e-015
rhumerus -31.2993 -2.98779 -83.8331
rradius 39.2334
rwrist 2.45035
rhand -10.5092 13.2626
rfingers 7.12502
rthumb 15.4932 -16.1366
lclavicle 1.19271e-015 1.98785e-015
lhumerus -30.9959 3.20109 85.6098
lradius 34.7982
lwrist -6.88642
lhand -21.0769 14.4166
lfingers 7.12502
lthumb 5.30007 44.3303
rfemur -13.2923 5.07056 21.4083
rtibia 24.1008
rfoot -11.8461 -9.71456
rtoes 1.99316
lfemur -14.3507 -1.09583 -21.0368
ltibia 24.6292
lfoot -13.376 5.76522
ltoes 1.39325
98
root 1.14515 17.7403 -17.1565 6.6466 -1.90367 -0.109657
lowerback 7.40604 -0.622476 -0.954786
upperback 0.0475187 -0.825246 2.04962
thorax -4.06234 -0.370945 2.7514
lowerneck -18.2029 -5.58692 -10.3219
upperneck 16.3452 -6.37598 7.4357
head 8.67698 -2.90037 3.38229
rclavicle 9.74045e-015 -3.57812e-015
rhumerus -31.0485 -2.80588 -83.8812
rradius 39.8454
rwrist 2.91256
rhand -10.5741 12.5598
rfingers 7.12502
rthumb 15.4307 -16.8443
lclavicle 9.74045e-015 -3.57812e-015
lhumerus -30.6417 2.8668 85.7958
lradius 35.274
lwrist -6.45146
lhand -21.1105 16.2086
lfingers 7.12502
lthumb 5.26761 46.1231
rfemur -13.7686 4.7626 21.3385
rtibia 24.7147
rfoot -11.9832 -9.65838
rtoes 1.37614
lfemur -14.8817 -0.998936 -21.1126
ltibia 25.2543
lfoot -13.5363 5.44055
ltoes 2.0021
